<?xml version="1.0"?>
<svg width="24" height="30" xmlns="http://www.w3.org/2000/svg" xmlns:svg="http://www.w3.org/2000/svg">
 <g class="layer">
  <title>Layer 1</title>
  <path d="m17.97,0.12q-6.96,9.92 -17.91,15.87q0.99,0.99 0,1.98q9.95,-1.98 13.93,-0.99q0,-0.99 2.98,-0.99q-8.95,-1.98 -13.93,0q9.95,-4.96 14.92,-12.89q-0.99,-0.99 0,-2.98m-9.95,13.88q6.96,-1.98 13.93,-0.99q-8.95,5.95 -15.92,13.88q0,1.49 0,2.98q6.96,-8.93 17.91,-15.87q-0.99,-0.99 0,-1.98q-5.97,-1.98 -12.93,0q0,0.99 -2.98,1.98" fill="url(#svg_7)" id="svg_1"/>
 </g>
 <defs>
  <radialGradient id="svg_7" spreadMethod="pad">
   <stop id="jq_stop_9242" offset="0.36" stop-color="#f96161"/>
   <stop id="jq_stop_5322" offset="1" stop-color="#ffffff" stop-opacity="1"/>
   <stop id="jq_stop_1954" offset="1" stop-color="#ffffff" stop-opacity="1"/>
  </radialGradient>
 </defs>
</svg>